<svg xmlns="http://www.w3.org/2000/svg" width="670.5" height="685">
  <g transform="translate(-30, -30)">
    <!-- Spouse lines -->
    <line x1="538.5" y1="371" x2="550.5" y2="371" stroke="#666" stroke-dasharray="4,2"/>
    <line x1="467.5" y1="227.5" x2="479.5" y2="227.5" stroke="#666" stroke-dasharray="4,2"/>
    <line x1="180" y1="227.5" x2="192" y2="227.5" stroke="#666" stroke-dasharray="4,2"/>
    <line x1="538.5" y1="374" x2="550.5" y2="374" stroke="#666" stroke-dasharray="4,2"/>
    <line x1="251.5" y1="517.5" x2="263.5" y2="517.5" stroke="#666" stroke-dasharray="4,2"/>
    <line x1="325.5" y1="82.5" x2="337.5" y2="82.5" stroke="#666" stroke-dasharray="4,2"/>
    <!-- Connections -->
    <line x1="544.5" y1="372.5" x2="544.5" y2="445" stroke="#333"/>
    <line x1="544.5" y1="445" x2="186.5" y2="445" stroke="#333"/>
    <line x1="186.5" y1="445" x2="186.5" y2="445" stroke="#333"/>
    <line x1="186.5" y1="445" x2="186.5" y2="485" stroke="#333"/>
    <line x1="473.5" y1="227.5" x2="473.5" y2="308" stroke="#333"/>
    <line x1="473.5" y1="308" x2="473.5" y2="308" stroke="#333"/>
    <line x1="473.5" y1="308" x2="473.5" y2="340" stroke="#333"/>
    <line x1="186" y1="227.5" x2="186" y2="300" stroke="#333"/>
    <line x1="186" y1="300" x2="615.5" y2="300" stroke="#333"/>
    <line x1="615.5" y1="300" x2="615.5" y2="300" stroke="#333"/>
    <line x1="615.5" y1="300" x2="615.5" y2="340" stroke="#333"/>
    <line x1="544.5" y1="372.5" x2="544.5" y2="453" stroke="#333"/>
    <line x1="544.5" y1="453" x2="328.5" y2="453" stroke="#333"/>
    <line x1="328.5" y1="453" x2="328.5" y2="453" stroke="#333"/>
    <line x1="328.5" y1="453" x2="328.5" y2="485" stroke="#333"/>
    <line x1="257.5" y1="517.5" x2="257.5" y2="590" stroke="#333"/>
    <line x1="257.5" y1="590" x2="257.5" y2="590" stroke="#333"/>
    <line x1="257.5" y1="590" x2="257.5" y2="630" stroke="#333"/>
    <line x1="331.5" y1="82.5" x2="331.5" y2="155" stroke="#333"/>
    <line x1="257" y1="155" x2="402.5" y2="155" stroke="#333"/>
    <line x1="402.5" y1="155" x2="402.5" y2="195" stroke="#333"/>
    <line x1="257" y1="155" x2="257" y2="195" stroke="#333"/>
    <!-- Cards -->
    <rect x="337.5" y="195" width="130" height="65" fill="#e3f2fd" stroke="#999"/>
    <text x="402.5" y="231.5" text-anchor="middle" font-size="10">H-D2 A1 H</text>
    <rect x="479.5" y="195" width="130" height="65" fill="#fce4ec" stroke="#999"/>
    <text x="544.5" y="231.5" text-anchor="middle" font-size="10">H-D2 A1 Sp H</text>
    <rect x="192" y="195" width="130" height="65" fill="#fce4ec" stroke="#999"/>
    <text x="257" y="231.5" text-anchor="middle" font-size="10">H-D2 A2 H</text>
    <rect x="50" y="195" width="130" height="65" fill="#e3f2fd" stroke="#999"/>
    <text x="115" y="231.5" text-anchor="middle" font-size="10">H-D2 A2 Sp H</text>
    <rect x="408.5" y="340" width="130" height="65" fill="#e3f2fd" stroke="#999"/>
    <text x="473.5" y="376.5" text-anchor="middle" font-size="10">H-D2 B1 H</text>
    <rect x="550.5" y="340" width="130" height="65" fill="#fce4ec" stroke="#999"/>
    <text x="615.5" y="376.5" text-anchor="middle" font-size="10">H-D2 B1 Sp H</text>
    <rect x="550.5" y="340" width="130" height="65" fill="#fce4ec" stroke="#999"/>
    <text x="615.5" y="376.5" text-anchor="middle" font-size="10">H-D2 B2 H</text>
    <rect x="408.5" y="340" width="130" height="65" fill="#e3f2fd" stroke="#999"/>
    <text x="473.5" y="376.5" text-anchor="middle" font-size="10">H-D2 B2 Sp H</text>
    <rect x="121.5" y="485" width="130" height="65" fill="#e3f2fd" stroke="#999"/>
    <text x="186.5" y="521.5" text-anchor="middle" font-size="10">H-D2 Cc1 H</text>
    <rect x="263.5" y="485" width="130" height="65" fill="#fce4ec" stroke="#999"/>
    <text x="328.5" y="521.5" text-anchor="middle" font-size="10">H-D2 Cc2 H</text>
    <rect x="192.5" y="630" width="130" height="65" fill="#fce4ec" stroke="#999"/>
    <text x="257.5" y="666.5" text-anchor="middle" font-size="10">H-D2 Ccc H</text>
    <rect x="195.5" y="50" width="130" height="65" fill="#e3f2fd" stroke="#999"/>
    <text x="260.5" y="86.5" text-anchor="middle" font-size="10">H-D2 Ggf H</text>
    <rect x="337.5" y="50" width="130" height="65" fill="#fce4ec" stroke="#999"/>
    <text x="402.5" y="86.5" text-anchor="middle" font-size="10">H-D2 Ggm H</text>
  </g>
</svg>
