<svg xmlns="http://www.w3.org/2000/svg" width="745.5" height="395">
  <g transform="translate(-30, -30)">
    <!-- Spouse lines -->
    <line x1="326.5" y1="82.5" x2="338.5" y2="82.5" stroke="#666" stroke-dasharray="4,2"/>
    <line x1="471.5" y1="227.5" x2="483.5" y2="227.5" stroke="#666" stroke-dasharray="4,2"/>
    <line x1="181.5" y1="227.5" x2="193.5" y2="227.5" stroke="#666" stroke-dasharray="4,2"/>
    <line x1="613.5" y1="82.5" x2="625.5" y2="82.5" stroke="#666" stroke-dasharray="4,2"/>
    <!-- Connections -->
    <line x1="332.5" y1="82.5" x2="332.5" y2="155" stroke="#333"/>
    <line x1="116.5" y1="155" x2="406.5" y2="155" stroke="#333"/>
    <line x1="406.5" y1="155" x2="406.5" y2="195" stroke="#333"/>
    <line x1="116.5" y1="155" x2="116.5" y2="195" stroke="#333"/>
    <line x1="477.5" y1="227.5" x2="477.5" y2="300" stroke="#333"/>
    <line x1="405" y1="300" x2="550" y2="300" stroke="#333"/>
    <line x1="405" y1="300" x2="405" y2="340" stroke="#333"/>
    <line x1="550" y1="300" x2="550" y2="340" stroke="#333"/>
    <line x1="187.5" y1="227.5" x2="187.5" y2="300" stroke="#333"/>
    <line x1="115" y1="300" x2="260" y2="300" stroke="#333"/>
    <line x1="115" y1="300" x2="115" y2="340" stroke="#333"/>
    <line x1="260" y1="300" x2="260" y2="340" stroke="#333"/>
    <line x1="619.5" y1="82.5" x2="619.5" y2="163" stroke="#333"/>
    <line x1="619.5" y1="163" x2="548.5" y2="163" stroke="#333"/>
    <line x1="258.5" y1="163" x2="548.5" y2="163" stroke="#333"/>
    <line x1="548.5" y1="163" x2="548.5" y2="195" stroke="#333"/>
    <line x1="258.5" y1="163" x2="258.5" y2="195" stroke="#333"/>
    <!-- Cards -->
    <rect x="196.5" y="50" width="130" height="65" fill="#e3f2fd" stroke="#999"/>
    <text x="261.5" y="86.5" text-anchor="middle" font-size="10">I-A Fa I</text>
    <rect x="338.5" y="50" width="130" height="65" fill="#fce4ec" stroke="#999"/>
    <text x="403.5" y="86.5" text-anchor="middle" font-size="10">I-A Mo I</text>
    <rect x="341.5" y="195" width="130" height="65" fill="#e3f2fd" stroke="#999"/>
    <text x="406.5" y="231.5" text-anchor="middle" font-size="10">I-Bro1 I</text>
    <rect x="51.5" y="195" width="130" height="65" fill="#e3f2fd" stroke="#999"/>
    <text x="116.5" y="231.5" text-anchor="middle" font-size="10">I-Bro2 I</text>
    <rect x="483.5" y="50" width="130" height="65" fill="#e3f2fd" stroke="#999"/>
    <text x="548.5" y="86.5" text-anchor="middle" font-size="10">I-C Fa I</text>
    <rect x="625.5" y="50" width="130" height="65" fill="#fce4ec" stroke="#999"/>
    <text x="690.5" y="86.5" text-anchor="middle" font-size="10">I-C Mo I</text>
    <rect x="340" y="340" width="130" height="65" fill="#e3f2fd" stroke="#999"/>
    <text x="405" y="376.5" text-anchor="middle" font-size="10">I-K1a I</text>
    <rect x="485" y="340" width="130" height="65" fill="#fce4ec" stroke="#999"/>
    <text x="550" y="376.5" text-anchor="middle" font-size="10">I-K1b I</text>
    <rect x="50" y="340" width="130" height="65" fill="#fce4ec" stroke="#999"/>
    <text x="115" y="376.5" text-anchor="middle" font-size="10">I-K2a I</text>
    <rect x="195" y="340" width="130" height="65" fill="#e3f2fd" stroke="#999"/>
    <text x="260" y="376.5" text-anchor="middle" font-size="10">I-K2b I</text>
    <rect x="483.5" y="195" width="130" height="65" fill="#fce4ec" stroke="#999"/>
    <text x="548.5" y="231.5" text-anchor="middle" font-size="10">I-Sis1 I</text>
    <rect x="193.5" y="195" width="130" height="65" fill="#fce4ec" stroke="#999"/>
    <text x="258.5" y="231.5" text-anchor="middle" font-size="10">I-Sis2 I</text>
  </g>
</svg>
