<svg xmlns="http://www.w3.org/2000/svg" width="742.5" height="395">
  <g transform="translate(-30, -30)">
    <!-- Spouse lines -->
    <line x1="323.5" y1="82.5" x2="335.5" y2="82.5" stroke="#666" stroke-dasharray="4,2"/>
    <line x1="467" y1="227.5" x2="479" y2="227.5" stroke="#666" stroke-dasharray="4,2"/>
    <line x1="610.5" y1="82.5" x2="622.5" y2="82.5" stroke="#666" stroke-dasharray="4,2"/>
    <line x1="180" y1="227.5" x2="192" y2="227.5" stroke="#666" stroke-dasharray="4,2"/>
    <!-- Connections -->
    <line x1="329.5" y1="82.5" x2="329.5" y2="155" stroke="#333"/>
    <line x1="115" y1="155" x2="402" y2="155" stroke="#333"/>
    <line x1="402" y1="155" x2="402" y2="195" stroke="#333"/>
    <line x1="115" y1="155" x2="115" y2="195" stroke="#333"/>
    <line x1="473" y1="227.5" x2="473" y2="300" stroke="#333"/>
    <line x1="473" y1="300" x2="473" y2="300" stroke="#333"/>
    <line x1="473" y1="300" x2="473" y2="340" stroke="#333"/>
    <line x1="616.5" y1="82.5" x2="616.5" y2="163" stroke="#333"/>
    <line x1="616.5" y1="163" x2="544" y2="163" stroke="#333"/>
    <line x1="257" y1="163" x2="544" y2="163" stroke="#333"/>
    <line x1="544" y1="163" x2="544" y2="195" stroke="#333"/>
    <line x1="257" y1="163" x2="257" y2="195" stroke="#333"/>
    <line x1="186" y1="227.5" x2="186" y2="300" stroke="#333"/>
    <line x1="186" y1="300" x2="186" y2="300" stroke="#333"/>
    <line x1="186" y1="300" x2="186" y2="340" stroke="#333"/>
    <!-- Cards -->
    <rect x="193.5" y="50" width="130" height="65" fill="#e3f2fd" stroke="#999"/>
    <text x="258.5" y="86.5" text-anchor="middle" font-size="10">J-F Fa J</text>
    <rect x="335.5" y="50" width="130" height="65" fill="#fce4ec" stroke="#999"/>
    <text x="400.5" y="86.5" text-anchor="middle" font-size="10">J-F Mo J</text>
    <rect x="337" y="195" width="130" height="65" fill="#e3f2fd" stroke="#999"/>
    <text x="402" y="231.5" text-anchor="middle" font-size="10">J-Focus J</text>
    <rect x="408" y="340" width="130" height="65" fill="#e3f2fd" stroke="#999"/>
    <text x="473" y="376.5" text-anchor="middle" font-size="10">J-Focus Kid J</text>
    <rect x="50" y="195" width="130" height="65" fill="#fce4ec" stroke="#999"/>
    <text x="115" y="231.5" text-anchor="middle" font-size="10">J-Focus Sib J</text>
    <rect x="480.5" y="50" width="130" height="65" fill="#e3f2fd" stroke="#999"/>
    <text x="545.5" y="86.5" text-anchor="middle" font-size="10">J-P Fa J</text>
    <rect x="622.5" y="50" width="130" height="65" fill="#fce4ec" stroke="#999"/>
    <text x="687.5" y="86.5" text-anchor="middle" font-size="10">J-P Mo J</text>
    <rect x="479" y="195" width="130" height="65" fill="#fce4ec" stroke="#999"/>
    <text x="544" y="231.5" text-anchor="middle" font-size="10">J-Partner J</text>
    <rect x="192" y="195" width="130" height="65" fill="#e3f2fd" stroke="#999"/>
    <text x="257" y="231.5" text-anchor="middle" font-size="10">J-Partner Sib J</text>
    <rect x="121" y="340" width="130" height="65" fill="#fce4ec" stroke="#999"/>
    <text x="186" y="376.5" text-anchor="middle" font-size="10">J-Sib Kid J</text>
  </g>
</svg>
