<svg xmlns="http://www.w3.org/2000/svg" width="1176" height="540">
  <g transform="translate(-30, -30)">
    <!-- Spouse lines -->
    <line x1="1044" y1="227.5" x2="1056" y2="227.5" stroke="#666" stroke-dasharray="4,2"/>
    <line x1="757" y1="227.5" x2="769" y2="227.5" stroke="#666" stroke-dasharray="4,2"/>
    <line x1="685.5" y1="82.5" x2="697.5" y2="82.5" stroke="#666" stroke-dasharray="4,2"/>
    <line x1="1044" y1="372.5" x2="1056" y2="372.5" stroke="#666" stroke-dasharray="4,2"/>
    <line x1="973" y1="82.5" x2="985" y2="82.5" stroke="#666" stroke-dasharray="4,2"/>
    <line x1="468.5" y1="227.5" x2="480.5" y2="227.5" stroke="#666" stroke-dasharray="4,2"/>
    <line x1="180" y1="372.5" x2="192" y2="372.5" stroke="#666" stroke-dasharray="4,2"/>
    <line x1="467" y1="372.5" x2="479" y2="372.5" stroke="#666" stroke-dasharray="4,2"/>
    <!-- Connections -->
    <line x1="1050" y1="227.5" x2="1050" y2="300" stroke="#333"/>
    <line x1="1050" y1="300" x2="1121" y2="300" stroke="#333"/>
    <line x1="1121" y1="300" x2="1121" y2="300" stroke="#333"/>
    <line x1="1121" y1="300" x2="1121" y2="340" stroke="#333"/>
    <line x1="763" y1="227.5" x2="763" y2="300" stroke="#333"/>
    <line x1="763" y1="300" x2="979" y2="300" stroke="#333"/>
    <line x1="979" y1="300" x2="979" y2="300" stroke="#333"/>
    <line x1="979" y1="300" x2="979" y2="340" stroke="#333"/>
    <line x1="691.5" y1="82.5" x2="691.5" y2="163" stroke="#333"/>
    <line x1="691.5" y1="163" x2="692" y2="163" stroke="#333"/>
    <line x1="692" y1="163" x2="692" y2="163" stroke="#333"/>
    <line x1="692" y1="163" x2="692" y2="195" stroke="#333"/>
    <line x1="1050" y1="372.5" x2="1050" y2="445" stroke="#333"/>
    <line x1="1050" y1="445" x2="1050" y2="445" stroke="#333"/>
    <line x1="1050" y1="445" x2="1050" y2="485" stroke="#333"/>
    <line x1="979" y1="82.5" x2="979" y2="155" stroke="#333"/>
    <line x1="403.5" y1="155" x2="979" y2="155" stroke="#333"/>
    <line x1="403.5" y1="155" x2="403.5" y2="195" stroke="#333"/>
    <line x1="979" y1="155" x2="979" y2="195" stroke="#333"/>
    <line x1="474.5" y1="227.5" x2="474.5" y2="308" stroke="#333"/>
    <line x1="115" y1="308" x2="834" y2="308" stroke="#333"/>
    <line x1="115" y1="308" x2="115" y2="340" stroke="#333"/>
    <line x1="544" y1="308" x2="544" y2="340" stroke="#333"/>
    <line x1="689" y1="308" x2="689" y2="340" stroke="#333"/>
    <line x1="834" y1="308" x2="834" y2="340" stroke="#333"/>
    <line x1="186" y1="372.5" x2="186" y2="445" stroke="#333"/>
    <line x1="186" y1="445" x2="186" y2="445" stroke="#333"/>
    <line x1="186" y1="445" x2="186" y2="485" stroke="#333"/>
    <line x1="473" y1="372.5" x2="473" y2="445" stroke="#333"/>
    <line x1="473" y1="445" x2="473" y2="445" stroke="#333"/>
    <line x1="473" y1="445" x2="473" y2="485" stroke="#333"/>
    <!-- Cards -->
    <rect x="914" y="195" width="130" height="65" fill="#e3f2fd" stroke="#999"/>
    <text x="979" y="231.5" text-anchor="middle" font-size="10">K-Father K</text>
    <rect x="1056" y="340" width="130" height="65" fill="#fce4ec" stroke="#999"/>
    <text x="1121" y="376.5" text-anchor="middle" font-size="10">K-Focus K</text>
    <rect x="985" y="485" width="130" height="65" fill="#fce4ec" stroke="#999"/>
    <text x="1050" y="521.5" text-anchor="middle" font-size="10">K-Focus Kid K</text>
    <rect x="627" y="195" width="130" height="65" fill="#e3f2fd" stroke="#999"/>
    <text x="692" y="231.5" text-anchor="middle" font-size="10">K-H Father K</text>
    <rect x="769" y="195" width="130" height="65" fill="#fce4ec" stroke="#999"/>
    <text x="834" y="231.5" text-anchor="middle" font-size="10">K-H Mother K</text>
    <rect x="555.5" y="50" width="130" height="65" fill="#e3f2fd" stroke="#999"/>
    <text x="620.5" y="86.5" text-anchor="middle" font-size="10">K-H Pgf K</text>
    <rect x="697.5" y="50" width="130" height="65" fill="#fce4ec" stroke="#999"/>
    <text x="762.5" y="86.5" text-anchor="middle" font-size="10">K-H Pgm K</text>
    <rect x="914" y="340" width="130" height="65" fill="#e3f2fd" stroke="#999"/>
    <text x="979" y="376.5" text-anchor="middle" font-size="10">K-Husband K</text>
    <rect x="1056" y="195" width="130" height="65" fill="#fce4ec" stroke="#999"/>
    <text x="1121" y="231.5" text-anchor="middle" font-size="10">K-Mother K</text>
    <rect x="843" y="50" width="130" height="65" fill="#e3f2fd" stroke="#999"/>
    <text x="908" y="86.5" text-anchor="middle" font-size="10">K-Pgf K</text>
    <rect x="985" y="50" width="130" height="65" fill="#fce4ec" stroke="#999"/>
    <text x="1050" y="86.5" text-anchor="middle" font-size="10">K-Pgm K</text>
    <rect x="338.5" y="195" width="130" height="65" fill="#e3f2fd" stroke="#999"/>
    <text x="403.5" y="231.5" text-anchor="middle" font-size="10">K-Uncle K</text>
    <rect x="121" y="485" width="130" height="65" fill="#e3f2fd" stroke="#999"/>
    <text x="186" y="521.5" text-anchor="middle" font-size="10">K-Uncle Gk0 K</text>
    <rect x="408" y="485" width="130" height="65" fill="#fce4ec" stroke="#999"/>
    <text x="473" y="521.5" text-anchor="middle" font-size="10">K-Uncle Gk1 K</text>
    <rect x="50" y="340" width="130" height="65" fill="#e3f2fd" stroke="#999"/>
    <text x="115" y="376.5" text-anchor="middle" font-size="10">K-Uncle K0 K</text>
    <rect x="192" y="340" width="130" height="65" fill="#fce4ec" stroke="#999"/>
    <text x="257" y="376.5" text-anchor="middle" font-size="10">K-Uncle K0 Sp K</text>
    <rect x="479" y="340" width="130" height="65" fill="#fce4ec" stroke="#999"/>
    <text x="544" y="376.5" text-anchor="middle" font-size="10">K-Uncle K1 K</text>
    <rect x="337" y="340" width="130" height="65" fill="#e3f2fd" stroke="#999"/>
    <text x="402" y="376.5" text-anchor="middle" font-size="10">K-Uncle K1 Sp K</text>
    <rect x="624" y="340" width="130" height="65" fill="#e3f2fd" stroke="#999"/>
    <text x="689" y="376.5" text-anchor="middle" font-size="10">K-Uncle K2 K</text>
    <rect x="769" y="340" width="130" height="65" fill="#fce4ec" stroke="#999"/>
    <text x="834" y="376.5" text-anchor="middle" font-size="10">K-Uncle K3 K</text>
    <rect x="480.5" y="195" width="130" height="65" fill="#fce4ec" stroke="#999"/>
    <text x="545.5" y="231.5" text-anchor="middle" font-size="10">K-Uncle W K</text>
  </g>
</svg>
